<svg xmlns="http://www.w3.org/2000/svg" viewbox="0 0 300 300">
  <rect x="0" y="0" width="300" height="300" fill="#3C7FD0" rx="50%" fill-opacity="100%"/>
  <circle cx="150" cy="150" r="140" fill="#ffffff"/>
  <g transform="translate(70,170)">
    <path d="M -61 -15 
          C -30 -15, -30 -15, -30 -35 
          C -30 -120, 30 -130, 30 -5 
          C 30 110, 82 110, 82 -5 
          C 82 -170, 137 -170, 137 -5 
          C 137 70, 195 70, 192 -5 
          C 192 -20, 210 -20, 220 -20" stroke="#3C7FD0" stroke-width="11" fill="none" stroke-opacity="60%"/>
    <text x="0" y="0" font-size="67" font-weight="bold" text-anchor="middle" fill="#3C7FD0" font-family="sans-serif">D</text>
    <circle cx="30" cy="-5" r="4" fill="#ffffff"/>
    <text x="55" y="0" font-size="67" font-weight="bold" text-anchor="middle" fill="#3C7FD0" font-family="sans-serif">E</text>
    <circle cx="82" cy="-5" r="4" fill="#ffffff"/>
    <text x="110" y="0" font-size="67" font-weight="bold" text-anchor="middle" fill="#3C7FD0" font-family="sans-serif">S</text>
    <circle cx="137" cy="-5" r="4" fill="#ffffff"/>
    <text x="165" y="0" font-size="67" font-weight="bold" text-anchor="middle" fill="#3C7FD0" font-family="sans-serif">S</text>
    <circle cx="192" cy="-5" r="4" fill="#ffffff"/>
  </g>
</svg>
